<svg width="36" height="36" viewBox="0 0 36 36" fill="none" xmlns="http://www.w3.org/2000/svg">
<g clip-path="url(#clip0_7_138)">
<path d="M30.4097 30.4102H25.1867V22.2307C25.1867 20.2802 25.1519 17.7693 22.4703 17.7693C19.75 17.7693 19.3338 19.8945 19.3338 22.0887V30.4097H14.1108V13.5892H19.1248V15.888H19.195C20.2174 14.1398 22.1184 13.0957 24.1421 13.1709C29.4358 13.1709 30.4119 16.6529 30.4119 21.1828L30.4097 30.4102ZM8.2176 11.29C6.54364 11.2903 5.1864 9.93352 5.1861 8.25956C5.1858 6.58556 6.54255 5.22829 8.21651 5.22799C9.89044 5.22769 11.2477 6.58447 11.248 8.25847C11.2481 9.06232 10.9289 9.83336 10.3606 10.4019C9.7923 10.9704 9.02145 11.2899 8.2176 11.29ZM10.8291 30.4102H5.60066V13.5892H10.8291V30.4102ZM33.0135 0.377627H2.97613C1.55651 0.361606 0.392325 1.49878 0.375 2.91843V33.0811C0.391732 34.5014 1.55582 35.6397 2.97613 35.6248H33.0135C34.4367 35.6424 35.6053 34.5042 35.625 33.0811V2.91625C35.6047 1.4938 34.436 0.35669 33.0135 0.375223" fill="white"/>
</g>
<defs>
<clipPath id="clip0_7_138">
<rect width="36" height="36" fill="white"/>
</clipPath>
</defs>
</svg>
