<svg width="275" height="50" viewBox="0 0 275 50" fill="none" xmlns="http://www.w3.org/2000/svg">
<path d="M9.264 5.664C14.48 5.664 18.656 6.848 21.792 9.216C24.96 11.552 26.544 15.856 26.544 22.128C26.544 28.304 25.008 32.656 21.936 35.184C18.864 37.68 14.88 38.928 9.984 38.928H0V5.664H9.264ZM7.872 11.376V33.216H10.464C13.056 33.216 15.024 32.416 16.368 30.816C17.712 29.184 18.384 26.288 18.384 22.128C18.384 19.28 18.048 17.072 17.376 15.504C16.704 13.936 15.792 12.864 14.64 12.288C13.488 11.68 12.064 11.376 10.368 11.376H7.872Z" fill="white"/>
<path d="M50.9089 31.536C50.9089 32.496 51.0369 33.2 51.2929 33.648C51.5809 34.096 52.0289 34.432 52.6369 34.656L51.0529 39.6C49.4849 39.472 48.2049 39.136 47.2129 38.592C46.2209 38.016 45.4529 37.12 44.9089 35.904C43.2449 38.464 40.6849 39.744 37.2289 39.744C34.7009 39.744 32.6849 39.008 31.1809 37.536C29.6769 36.064 28.9249 34.144 28.9249 31.776C28.9249 28.992 29.9489 26.864 31.9969 25.392C34.0449 23.92 37.0049 23.184 40.8769 23.184H43.4689V22.08C43.4689 20.576 43.1489 19.552 42.5089 19.008C41.8689 18.432 40.7489 18.144 39.1489 18.144C38.3169 18.144 37.3089 18.272 36.1249 18.528C34.9409 18.752 33.7249 19.072 32.4769 19.488L30.7489 14.496C32.3489 13.888 33.9809 13.424 35.6449 13.104C37.3409 12.784 38.9089 12.624 40.3489 12.624C43.9969 12.624 46.6689 13.376 48.3649 14.88C50.0609 16.384 50.9089 18.64 50.9089 21.648V31.536ZM39.4369 34.32C41.1649 34.32 42.5089 33.504 43.4689 31.872V27.36H41.5969C39.8689 27.36 38.5729 27.664 37.7089 28.272C36.8769 28.88 36.4609 29.824 36.4609 31.104C36.4609 32.128 36.7169 32.928 37.2289 33.504C37.7729 34.048 38.5089 34.32 39.4369 34.32Z" fill="white"/>
<path d="M71.8778 12.624C74.0858 12.624 75.8138 13.296 77.0618 14.64C78.3098 15.984 78.9338 17.872 78.9338 20.304V38.928H71.3498V21.6C71.3498 20.32 71.1418 19.44 70.7258 18.96C70.3418 18.448 69.7498 18.192 68.9498 18.192C67.4138 18.192 65.9418 19.296 64.5338 21.504V38.928H56.9497V13.44H63.5737L64.1018 16.464C65.1898 15.184 66.3578 14.224 67.6058 13.584C68.8858 12.944 70.3098 12.624 71.8778 12.624Z" fill="white"/>
<path d="M92.2369 13.44V38.928H84.6529V13.44H92.2369ZM88.3969 0C89.7089 0 90.7809 0.416 91.6129 1.248C92.4769 2.048 92.9089 3.072 92.9089 4.32C92.9089 5.568 92.4769 6.608 91.6129 7.44C90.7809 8.24 89.7089 8.64 88.3969 8.64C87.0849 8.64 86.0129 8.24 85.1809 7.44C84.3489 6.608 83.9329 5.568 83.9329 4.32C83.9329 3.072 84.3489 2.048 85.1809 1.248C86.0129 0.416 87.0849 0 88.3969 0Z" fill="white"/>
<path d="M120.424 25.68C120.424 26.736 120.376 27.648 120.28 28.416H104.488C104.744 30.56 105.352 32.064 106.312 32.928C107.272 33.792 108.6 34.224 110.296 34.224C111.32 34.224 112.312 34.048 113.272 33.696C114.232 33.312 115.272 32.736 116.392 31.968L119.512 36.192C116.536 38.56 113.224 39.744 109.576 39.744C105.448 39.744 102.28 38.528 100.072 36.096C97.8637 33.664 96.7598 30.4 96.7598 26.304C96.7598 23.712 97.2237 21.392 98.1517 19.344C99.0797 17.264 100.44 15.632 102.232 14.448C104.024 13.232 106.168 12.624 108.664 12.624C112.344 12.624 115.224 13.776 117.304 16.08C119.384 18.384 120.424 21.584 120.424 25.68ZM112.984 23.52C112.92 19.616 111.544 17.664 108.856 17.664C107.544 17.664 106.52 18.144 105.784 19.104C105.08 20.064 104.648 21.648 104.488 23.856H112.984V23.52Z" fill="white"/>
<path d="M131.452 39.744C129.244 39.744 127.516 39.12 126.268 37.872C125.052 36.592 124.444 34.784 124.444 32.448V3.312L132.028 2.496V32.16C132.028 33.216 132.46 33.744 133.324 33.744C133.772 33.744 134.188 33.664 134.572 33.504L136.06 38.88C134.684 39.456 133.148 39.744 131.452 39.744Z" fill="white"/>
<path d="M163.909 4.848C168.645 4.848 172.325 6.368 174.949 9.408C177.605 12.448 178.933 16.736 178.933 22.272C178.933 25.888 178.325 29.008 177.109 31.632C175.925 34.256 174.197 36.272 171.925 37.68C169.685 39.056 167.013 39.744 163.909 39.744C160.805 39.744 158.133 39.056 155.893 37.68C153.653 36.304 151.925 34.32 150.709 31.728C149.525 29.104 148.933 25.952 148.933 22.272C148.933 18.688 149.525 15.584 150.709 12.96C151.925 10.336 153.653 8.336 155.893 6.96C158.133 5.552 160.805 4.848 163.909 4.848ZM163.909 10.608C161.637 10.608 159.941 11.536 158.821 13.392C157.733 15.216 157.189 18.176 157.189 22.272C157.189 26.368 157.749 29.344 158.869 31.2C159.989 33.056 161.669 33.984 163.909 33.984C166.213 33.984 167.909 33.072 168.997 31.248C170.117 29.392 170.677 26.4 170.677 22.272C170.677 18.144 170.117 15.168 168.997 13.344C167.877 11.52 166.181 10.608 163.909 10.608Z" fill="white"/>
<path d="M191.048 36.048C191.048 38.704 190.616 40.896 189.752 42.624C188.92 44.352 187.768 45.728 186.296 46.752C184.856 47.808 183.032 48.736 180.824 49.536L178.28 44.016C179.528 43.44 180.504 42.88 181.208 42.336C181.912 41.792 182.456 41.056 182.84 40.128C183.256 39.232 183.464 38.032 183.464 36.528V13.44H191.048V36.048ZM187.256 0C188.568 0 189.64 0.416 190.472 1.248C191.336 2.048 191.768 3.072 191.768 4.32C191.768 5.568 191.336 6.608 190.472 7.44C189.64 8.24 188.568 8.64 187.256 8.64C185.944 8.64 184.872 8.24 184.04 7.44C183.208 6.608 182.792 5.568 182.792 4.32C182.792 3.072 183.208 2.048 184.04 1.248C184.872 0.416 185.944 0 187.256 0Z" fill="white"/>
<path d="M219.236 25.68C219.236 26.736 219.188 27.648 219.092 28.416H203.3C203.556 30.56 204.164 32.064 205.124 32.928C206.084 33.792 207.412 34.224 209.108 34.224C210.132 34.224 211.124 34.048 212.084 33.696C213.044 33.312 214.084 32.736 215.204 31.968L218.324 36.192C215.348 38.56 212.036 39.744 208.388 39.744C204.26 39.744 201.092 38.528 198.884 36.096C196.676 33.664 195.572 30.4 195.572 26.304C195.572 23.712 196.036 21.392 196.964 19.344C197.892 17.264 199.252 15.632 201.044 14.448C202.836 13.232 204.98 12.624 207.476 12.624C211.156 12.624 214.036 13.776 216.116 16.08C218.196 18.384 219.236 21.584 219.236 25.68ZM211.796 23.52C211.732 19.616 210.356 17.664 207.668 17.664C206.356 17.664 205.332 18.144 204.596 19.104C203.892 20.064 203.46 21.648 203.3 23.856H211.796V23.52Z" fill="white"/>
<path d="M246.345 3.312V38.928H239.625L239.241 35.952C237.449 38.48 235.033 39.744 231.993 39.744C228.825 39.744 226.409 38.528 224.745 36.096C223.113 33.664 222.297 30.336 222.297 26.112C222.297 23.52 222.729 21.2 223.593 19.152C224.457 17.104 225.673 15.504 227.241 14.352C228.841 13.2 230.665 12.624 232.713 12.624C235.145 12.624 237.161 13.424 238.761 15.024V2.496L246.345 3.312ZM234.345 34.176C236.105 34.176 237.577 33.216 238.761 31.296V20.304C238.153 19.568 237.529 19.024 236.889 18.672C236.281 18.32 235.577 18.144 234.777 18.144C233.369 18.144 232.249 18.8 231.417 20.112C230.585 21.424 230.169 23.44 230.169 26.16C230.169 29.136 230.521 31.216 231.225 32.4C231.961 33.584 233.001 34.176 234.345 34.176Z" fill="white"/>
<path d="M272.534 31.536C272.534 32.496 272.662 33.2 272.918 33.648C273.206 34.096 273.654 34.432 274.262 34.656L272.678 39.6C271.11 39.472 269.83 39.136 268.838 38.592C267.846 38.016 267.078 37.12 266.534 35.904C264.87 38.464 262.31 39.744 258.854 39.744C256.326 39.744 254.31 39.008 252.806 37.536C251.302 36.064 250.55 34.144 250.55 31.776C250.55 28.992 251.574 26.864 253.622 25.392C255.67 23.92 258.63 23.184 262.502 23.184H265.094V22.08C265.094 20.576 264.774 19.552 264.134 19.008C263.494 18.432 262.374 18.144 260.774 18.144C259.942 18.144 258.934 18.272 257.75 18.528C256.566 18.752 255.35 19.072 254.102 19.488L252.374 14.496C253.974 13.888 255.606 13.424 257.27 13.104C258.966 12.784 260.534 12.624 261.974 12.624C265.622 12.624 268.294 13.376 269.99 14.88C271.686 16.384 272.534 18.64 272.534 21.648V31.536ZM261.062 34.32C262.79 34.32 264.134 33.504 265.094 31.872V27.36H263.222C261.494 27.36 260.198 27.664 259.334 28.272C258.502 28.88 258.086 29.824 258.086 31.104C258.086 32.128 258.342 32.928 258.854 33.504C259.398 34.048 260.134 34.32 261.062 34.32Z" fill="white"/>
</svg>
