<svg width="275" height="50" viewBox="0 0 275 50" fill="none" xmlns="http://www.w3.org/2000/svg">
<path d="M9.384 5.73599C14.6 5.73599 18.776 6.91999 21.912 9.28799C25.08 11.624 26.664 15.928 26.664 22.2C26.664 28.376 25.128 32.728 22.056 35.256C18.984 37.752 15 39 10.104 39H0.119995V5.73599H9.384ZM7.992 11.448V33.288H10.584C13.176 33.288 15.144 32.488 16.488 30.888C17.832 29.256 18.504 26.36 18.504 22.2C18.504 19.352 18.168 17.144 17.496 15.576C16.824 14.008 15.912 12.936 14.76 12.36C13.608 11.752 12.184 11.448 10.488 11.448H7.992Z" fill="#292929"/>
<path d="M51.0289 31.608C51.0289 32.568 51.1569 33.272 51.4129 33.72C51.7009 34.168 52.1489 34.504 52.7569 34.728L51.1729 39.672C49.6049 39.544 48.3249 39.208 47.3329 38.664C46.3409 38.088 45.5729 37.192 45.0289 35.976C43.3649 38.536 40.8049 39.816 37.3489 39.816C34.8209 39.816 32.8049 39.08 31.3009 37.608C29.7969 36.136 29.0449 34.216 29.0449 31.848C29.0449 29.064 30.0689 26.936 32.1169 25.464C34.1649 23.992 37.1249 23.256 40.9969 23.256H43.5889V22.152C43.5889 20.648 43.2689 19.624 42.6289 19.08C41.9889 18.504 40.8689 18.216 39.2689 18.216C38.4369 18.216 37.4289 18.344 36.2449 18.6C35.0609 18.824 33.8449 19.144 32.5969 19.56L30.8689 14.568C32.4689 13.96 34.1009 13.496 35.7649 13.176C37.4609 12.856 39.0289 12.696 40.4689 12.696C44.1169 12.696 46.7889 13.448 48.4849 14.952C50.1809 16.456 51.0289 18.712 51.0289 21.72V31.608ZM39.5569 34.392C41.2849 34.392 42.6289 33.576 43.5889 31.944V27.432H41.7169C39.9889 27.432 38.6929 27.736 37.8289 28.344C36.9969 28.952 36.5809 29.896 36.5809 31.176C36.5809 32.2 36.8369 33 37.3489 33.576C37.8929 34.12 38.6289 34.392 39.5569 34.392Z" fill="#292929"/>
<path d="M71.9977 12.696C74.2057 12.696 75.9337 13.368 77.1817 14.712C78.4297 16.056 79.0537 17.944 79.0537 20.376V39H71.4697V21.672C71.4697 20.392 71.2617 19.512 70.8457 19.032C70.4617 18.52 69.8697 18.264 69.0697 18.264C67.5337 18.264 66.0617 19.368 64.6537 21.576V39H57.0697V13.512H63.6937L64.2217 16.536C65.3097 15.256 66.4777 14.296 67.7257 13.656C69.0057 13.016 70.4297 12.696 71.9977 12.696Z" fill="#292929"/>
<path d="M92.3569 13.512V39H84.7729V13.512H92.3569ZM88.5169 0.071991C89.8289 0.071991 90.9009 0.487991 91.7329 1.31999C92.5969 2.11999 93.0289 3.14399 93.0289 4.39199C93.0289 5.63999 92.5969 6.67999 91.7329 7.51199C90.9009 8.31199 89.8289 8.71199 88.5169 8.71199C87.2049 8.71199 86.1329 8.31199 85.3009 7.51199C84.4689 6.67999 84.0529 5.63999 84.0529 4.39199C84.0529 3.14399 84.4689 2.11999 85.3009 1.31999C86.1329 0.487991 87.2049 0.071991 88.5169 0.071991Z" fill="#292929"/>
<path d="M120.544 25.752C120.544 26.808 120.496 27.72 120.4 28.488H104.608C104.864 30.632 105.472 32.136 106.432 33C107.392 33.864 108.72 34.296 110.416 34.296C111.44 34.296 112.432 34.12 113.392 33.768C114.352 33.384 115.392 32.808 116.512 32.04L119.632 36.264C116.656 38.632 113.344 39.816 109.696 39.816C105.568 39.816 102.4 38.6 100.192 36.168C97.9837 33.736 96.8797 30.472 96.8797 26.376C96.8797 23.784 97.3437 21.464 98.2717 19.416C99.1997 17.336 100.56 15.704 102.352 14.52C104.144 13.304 106.288 12.696 108.784 12.696C112.464 12.696 115.344 13.848 117.424 16.152C119.504 18.456 120.544 21.656 120.544 25.752ZM113.104 23.592C113.04 19.688 111.664 17.736 108.976 17.736C107.664 17.736 106.64 18.216 105.904 19.176C105.2 20.136 104.768 21.72 104.608 23.928H113.104V23.592Z" fill="#292929"/>
<path d="M131.572 39.816C129.364 39.816 127.636 39.192 126.388 37.944C125.172 36.664 124.564 34.856 124.564 32.52V3.38399L132.148 2.56799V32.232C132.148 33.288 132.58 33.816 133.444 33.816C133.892 33.816 134.308 33.736 134.692 33.576L136.18 38.952C134.804 39.528 133.268 39.816 131.572 39.816Z" fill="#292929"/>
<path d="M164.029 4.91999C168.765 4.91999 172.445 6.43999 175.069 9.47999C177.725 12.52 179.053 16.808 179.053 22.344C179.053 25.96 178.445 29.08 177.229 31.704C176.045 34.328 174.317 36.344 172.045 37.752C169.805 39.128 167.133 39.816 164.029 39.816C160.925 39.816 158.253 39.128 156.013 37.752C153.773 36.376 152.045 34.392 150.829 31.8C149.645 29.176 149.053 26.024 149.053 22.344C149.053 18.76 149.645 15.656 150.829 13.032C152.045 10.408 153.773 8.40799 156.013 7.03199C158.253 5.62399 160.925 4.91999 164.029 4.91999ZM164.029 10.68C161.757 10.68 160.061 11.608 158.941 13.464C157.853 15.288 157.309 18.248 157.309 22.344C157.309 26.44 157.869 29.416 158.989 31.272C160.109 33.128 161.789 34.056 164.029 34.056C166.333 34.056 168.029 33.144 169.117 31.32C170.237 29.464 170.797 26.472 170.797 22.344C170.797 18.216 170.237 15.24 169.117 13.416C167.997 11.592 166.301 10.68 164.029 10.68Z" fill="#292929"/>
<path d="M191.168 36.12C191.168 38.776 190.736 40.968 189.872 42.696C189.04 44.424 187.888 45.8 186.416 46.824C184.976 47.88 183.152 48.808 180.944 49.608L178.4 44.088C179.648 43.512 180.624 42.952 181.328 42.408C182.032 41.864 182.576 41.128 182.96 40.2C183.376 39.304 183.584 38.104 183.584 36.6V13.512H191.168V36.12ZM187.376 0.071991C188.688 0.071991 189.76 0.487991 190.592 1.31999C191.456 2.11999 191.888 3.14399 191.888 4.39199C191.888 5.63999 191.456 6.67999 190.592 7.51199C189.76 8.31199 188.688 8.71199 187.376 8.71199C186.064 8.71199 184.992 8.31199 184.16 7.51199C183.328 6.67999 182.912 5.63999 182.912 4.39199C182.912 3.14399 183.328 2.11999 184.16 1.31999C184.992 0.487991 186.064 0.071991 187.376 0.071991Z" fill="#292929"/>
<path d="M219.356 25.752C219.356 26.808 219.308 27.72 219.212 28.488H203.42C203.676 30.632 204.284 32.136 205.244 33C206.204 33.864 207.532 34.296 209.228 34.296C210.252 34.296 211.244 34.12 212.204 33.768C213.164 33.384 214.204 32.808 215.324 32.04L218.444 36.264C215.468 38.632 212.156 39.816 208.508 39.816C204.38 39.816 201.212 38.6 199.004 36.168C196.796 33.736 195.692 30.472 195.692 26.376C195.692 23.784 196.156 21.464 197.084 19.416C198.012 17.336 199.372 15.704 201.164 14.52C202.956 13.304 205.1 12.696 207.596 12.696C211.276 12.696 214.156 13.848 216.236 16.152C218.316 18.456 219.356 21.656 219.356 25.752ZM211.916 23.592C211.852 19.688 210.476 17.736 207.788 17.736C206.476 17.736 205.452 18.216 204.716 19.176C204.012 20.136 203.58 21.72 203.42 23.928H211.916V23.592Z" fill="#292929"/>
<path d="M246.465 3.38399V39H239.745L239.361 36.024C237.569 38.552 235.153 39.816 232.113 39.816C228.945 39.816 226.529 38.6 224.865 36.168C223.233 33.736 222.417 30.408 222.417 26.184C222.417 23.592 222.849 21.272 223.713 19.224C224.577 17.176 225.793 15.576 227.361 14.424C228.961 13.272 230.785 12.696 232.833 12.696C235.265 12.696 237.281 13.496 238.881 15.096V2.56799L246.465 3.38399ZM234.465 34.248C236.225 34.248 237.697 33.288 238.881 31.368V20.376C238.273 19.64 237.649 19.096 237.009 18.744C236.401 18.392 235.697 18.216 234.897 18.216C233.489 18.216 232.369 18.872 231.537 20.184C230.705 21.496 230.289 23.512 230.289 26.232C230.289 29.208 230.641 31.288 231.345 32.472C232.081 33.656 233.121 34.248 234.465 34.248Z" fill="#292929"/>
<path d="M272.654 31.608C272.654 32.568 272.782 33.272 273.038 33.72C273.326 34.168 273.774 34.504 274.382 34.728L272.798 39.672C271.23 39.544 269.95 39.208 268.958 38.664C267.966 38.088 267.198 37.192 266.654 35.976C264.99 38.536 262.43 39.816 258.974 39.816C256.446 39.816 254.43 39.08 252.926 37.608C251.422 36.136 250.67 34.216 250.67 31.848C250.67 29.064 251.694 26.936 253.742 25.464C255.79 23.992 258.75 23.256 262.622 23.256H265.214V22.152C265.214 20.648 264.894 19.624 264.254 19.08C263.614 18.504 262.494 18.216 260.894 18.216C260.062 18.216 259.054 18.344 257.87 18.6C256.686 18.824 255.47 19.144 254.222 19.56L252.494 14.568C254.094 13.96 255.726 13.496 257.39 13.176C259.086 12.856 260.654 12.696 262.094 12.696C265.742 12.696 268.414 13.448 270.11 14.952C271.806 16.456 272.654 18.712 272.654 21.72V31.608ZM261.182 34.392C262.91 34.392 264.254 33.576 265.214 31.944V27.432H263.342C261.614 27.432 260.318 27.736 259.454 28.344C258.622 28.952 258.206 29.896 258.206 31.176C258.206 32.2 258.462 33 258.974 33.576C259.518 34.12 260.254 34.392 261.182 34.392Z" fill="#292929"/>
</svg>
